Coordinates
version=1
nRows=34
nColumns=38
inDegrees=no

Units are S.I. units (second, meters, Newtons, ...)
If the header above contains a line with 'inDegrees', this indicates whether rotational values are in degrees (yes) or radians (no).

endheader
time	pelvis_tilt	pelvis_list	pelvis_rotation	pelvis_tx	pelvis_ty	pelvis_tz	hip_flexion_r	hip_adduction_r	hip_rotation_r	knee_angle_r	ankle_angle_r	subtalar_angle_r	mtp_angle_r	hip_flexion_l	hip_adduction_l	hip_rotation_l	knee_angle_l	ankle_angle_l	subtalar_angle_l	mtp_angle_l	lumbar_extension	lumbar_bending	lumbar_rotation	arm_flex_r	arm_add_r	arm_rot_r	elbow_flex_r	pro_sup_r	wrist_flex_r	wrist_dev_r	arm_flex_l	arm_add_l	arm_rot_l	elbow_flex_l	pro_sup_l	wrist_flex_l	wrist_dev_l
0.44	0.0674056	1.47238	1.35157	0.716164	-0.146004	1.00423	0.0232536	0.0542599	-0.0351715	0.550479	0.0408243	0	0	0.54127	-0.0585663	-0.379546	0.378669	-0.178666	0	0	-0.273909	-0.0304515	0.125213	0.132877	-0.430787	1.13665	0.482936	0.677104	0	0	-0.0772896	-0.267087	0.386252	0.503418	1.2277	0	0
0.45	0.0778785	1.47648	1.33517	0.716091	-0.133623	1.00267	0.0064453	0.0510607	-0.0319203	0.551844	0.041332	0	0	0.536092	-0.0600553	-0.378671	0.386341	-0.178225	0	0	-0.277217	-0.0324026	0.128414	0.131404	-0.429354	1.13667	0.480295	0.680443	0	0	-0.0787911	-0.26502	0.386351	0.498234	1.226	0	0
0.46	0.0958107	1.48227	1.31111	0.716131	-0.120947	1.00127	-0.0115499	0.047168	-0.0308794	0.555118	0.0399611	0	0	0.529542	-0.0632141	-0.381703	0.403463	-0.17819	0	0	-0.282126	-0.0343663	0.131751	0.129097	-0.428045	1.13517	0.478342	0.683741	0	0	-0.0809239	-0.263627	0.386822	0.494362	1.2242	0	0
0.47	0.127649	1.48843	1.27366	0.716153	-0.107953	0.999866	-0.0303296	0.0434655	-0.0309821	0.558417	0.0369058	0	0	0.52285	-0.0680168	-0.386812	0.429591	-0.177916	0	0	-0.287274	-0.0353145	0.135159	0.125905	-0.426859	1.13213	0.476727	0.686804	0	0	-0.0838536	-0.262603	0.387926	0.491396	1.22256	0	0
0.48	0.176666	1.49496	1.21927	0.716219	-0.0946583	0.998446	-0.0501602	0.0403126	-0.0306565	0.561074	0.0322396	0	0	0.515531	-0.0746536	-0.394873	0.463331	-0.176871	0	0	-0.292881	-0.0354759	0.139286	0.121789	-0.425529	1.12776	0.474921	0.69112	0	0	-0.0873373	-0.262074	0.389849	0.489282	1.21982	0	0
0.49	0.228902	1.50245	1.1619	0.716156	-0.0811123	0.997197	-0.0704465	0.0357477	-0.0306615	0.564373	0.0262667	0	0	0.505947	-0.0797003	-0.403736	0.496331	-0.179431	0	0	-0.29921	-0.0364241	0.143585	0.116996	-0.423052	1.12296	0.470658	0.696302	0	0	-0.0903617	-0.261233	0.391932	0.485912	1.21528	0	0
0.5	0.247935	1.51169	1.13831	0.715883	-0.0674988	0.99643	-0.0896722	0.027325	-0.0301436	0.570674	0.0180885	0	0	0.494221	-0.0793101	-0.414893	0.518692	-0.190364	0	0	-0.306475	-0.0408673	0.146842	0.112305	-0.417741	1.1177	0.461618	0.702472	0	0	-0.0913149	-0.260028	0.39534	0.479261	1.20924	0	0
0.51	0.184598	1.52235	1.19845	0.715497	-0.0540091	0.996297	-0.106075	0.0147044	-0.0274388	0.581316	0.00771478	0	0	0.484029	-0.073266	-0.429522	0.531735	-0.207025	0	0	-0.314008	-0.0500788	0.147436	0.108926	-0.408411	1.11218	0.447128	0.709527	0	0	-0.0896749	-0.259466	0.402149	0.468984	1.20605	0	0
0.52	0.0207772	1.53224	1.361	0.715108	-0.0405852	0.996559	-0.119161	0.00120904	-0.0208026	0.596585	-0.00485986	0	0	0.477847	-0.0670175	-0.446667	0.552109	-0.221939	0	0	-0.320842	-0.061576	0.145179	0.106242	-0.396689	1.10573	0.430405	0.717717	0	0	-0.0887707	-0.260359	0.408602	0.460687	1.2034	0	0
0.53	-0.236093	1.54111	1.61813	0.714732	-0.0270235	0.997123	-0.131426	-0.0103942	-0.00967765	0.615407	-0.0216409	0	0	0.471509	-0.0628134	-0.460227	0.582746	-0.233221	0	0	-0.328128	-0.0725831	0.141104	0.103003	-0.385055	1.09645	0.415419	0.728779	0	0	-0.0906175	-0.263067	0.413727	0.458047	1.20019	0	0
0.54	-0.607284	1.54876	1.99144	0.714282	-0.0132357	0.997931	-0.143611	-0.0187819	0.00410861	0.637598	-0.0417966	0	0	0.463907	-0.059461	-0.464723	0.620111	-0.235388	0	0	-0.336482	-0.0807363	0.135769	0.0984048	-0.376676	1.08484	0.406885	0.739685	0	0	-0.0946022	-0.266931	0.41801	0.459881	1.1991	0	0
0.55	-1.10043	1.55019	2.49052	0.713328	0.000414618	0.998953	-0.149697	-0.0262607	0.0168597	0.666647	-0.0662337	0	0	0.455583	-0.0517101	-0.458721	0.648198	-0.236153	0	0	-0.343464	-0.0869659	0.127825	0.093073	-0.369322	1.0707	0.400067	0.7503	0	0	-0.0974807	-0.270046	0.420962	0.461283	1.19541	0	0
0.56	-1.44761	1.54616	2.84676	0.711814	0.0137959	1.00016	-0.148931	-0.032936	0.0274072	0.701601	-0.0957154	0	0	0.445721	-0.0407773	-0.448149	0.663165	-0.239037	0	0	-0.348606	-0.0916752	0.118719	0.0873196	-0.361933	1.05541	0.392164	0.761181	0	0	-0.0980705	-0.272314	0.425345	0.460438	1.19212	0	0
0.57	-1.57676	1.53969	2.98652	0.710022	0.0266989	1.0015	-0.140369	-0.0387342	0.0388263	0.742168	-0.131452	0	0	0.432837	-0.0283553	-0.4394	0.660448	-0.244614	0	0	-0.351427	-0.0958101	0.109694	0.0819507	-0.35367	1.03988	0.381906	0.772433	0	0	-0.0959782	-0.273787	0.431336	0.456293	1.1898	0	0
0.58	-1.66642	1.53746	3.08436	0.70856	0.0397725	1.00249	-0.130115	-0.0386917	0.0543745	0.784444	-0.171673	0	0	0.420393	-0.0239931	-0.432645	0.664873	-0.242026	0	0	-0.352943	-0.0959744	0.104385	0.0753204	-0.348277	1.02543	0.375848	0.78399	0	0	-0.0967909	-0.275814	0.436206	0.455508	1.18818	0	0
0.59	-1.7665	1.53739	-3.09198	0.70726	0.0529302	1.00331	-0.11848	-0.0354131	0.070198	0.828255	-0.211582	0	0	0.408033	-0.0239036	-0.428679	0.675456	-0.233822	0	0	-0.354155	-0.0940162	0.100686	0.0682311	-0.345312	1.0125	0.373649	0.795326	0	0	-0.0999199	-0.278522	0.439657	0.457852	1.18675	0	0
0.6	-1.87691	1.53638	-2.97604	0.706021	0.065827	1.00418	-0.104782	-0.032251	0.0839239	0.874297	-0.246494	0	0	0.394717	-0.0231794	-0.42783	0.686442	-0.224455	0	0	-0.356066	-0.0929553	0.0968563	0.0621797	-0.343875	1.00159	0.374193	0.806344	0	0	-0.104002	-0.282227	0.442386	0.462784	1.185	0	0
0.61	-1.98598	1.53335	-2.86256	0.70482	0.0784052	1.00518	-0.0899542	-0.0301094	0.0952275	0.921251	-0.275888	0	0	0.379959	-0.0204301	-0.43092	0.695455	-0.21565	0	0	-0.35915	-0.0937725	0.0922163	0.0574037	-0.343773	0.992711	0.377491	0.816935	0	0	-0.108797	-0.287386	0.44443	0.47061	1.18235	0	0
0.62	-2.06664	1.52885	-2.77813	0.70356	0.0905761	1.00632	-0.0717794	-0.0295602	0.10446	0.9715	-0.303777	0	0	0.364204	-0.0157083	-0.437649	0.701262	-0.20814	0	0	-0.362944	-0.0958856	0.0866301	0.0537675	-0.344937	0.984998	0.383328	0.826199	0	0	-0.113693	-0.293412	0.446358	0.479915	1.1802	0	0
0.63	-2.12167	1.52406	-2.72029	0.702324	0.102291	1.00753	-0.0505437	-0.0291961	0.113644	1.02303	-0.328398	0	0	0.348585	-0.00991266	-0.445576	0.70624	-0.200365	0	0	-0.367038	-0.0985373	0.0810531	0.0510108	-0.347304	0.978176	0.39167	0.834024	0	0	-0.118954	-0.299823	0.446991	0.491149	1.17731	0	0
0.64	-2.18215	1.51926	-2.65706	0.70107	0.113722	1.00888	-0.0287586	-0.0284668	0.1211	1.07308	-0.342951	0	0	0.331316	-0.00370953	-0.452991	0.709133	-0.192332	0	0	-0.37231	-0.100608	0.0751913	0.0487582	-0.350652	0.971875	0.401943	0.840423	0	0	-0.124466	-0.306211	0.446026	0.504075	1.17287	0	0
0.65	-2.25033	1.51512	-2.58567	0.6998	0.124903	1.0104	-0.00720514	-0.0262478	0.126635	1.12017	-0.342843	0	0	0.312686	0.00172475	-0.457749	0.708908	-0.185395	0	0	-0.378305	-0.101003	0.0691829	0.0471238	-0.354347	0.966908	0.412537	0.844693	0	0	-0.129245	-0.311877	0.44453	0.516348	1.16851	0	0
0.66	-2.33329	1.51202	-2.49898	0.698517	0.135954	1.01199	0.0137642	-0.0218535	0.13048	1.16444	-0.32934	0	0	0.293663	0.00509257	-0.458883	0.707569	-0.178932	0	0	-0.384834	-0.0989776	0.0633118	0.0454461	-0.358845	0.961844	0.424206	0.847934	0	0	-0.133404	-0.31645	0.442705	0.52748	1.16435	0	0
0.67	-2.42655	1.50964	-2.40137	0.697172	0.146919	1.01364	0.034866	-0.0159379	0.132241	1.20585	-0.306776	0	0	0.274395	0.00653849	-0.457565	0.704806	-0.173962	0	0	-0.391378	-0.0947185	0.0580743	0.0435859	-0.363478	0.956438	0.435284	0.850067	0	0	-0.13622	-0.319591	0.441325	0.536076	1.16226	0	0
0.68	-2.52642	1.50714	-2.29693	0.695748	0.157818	1.01541	0.0561671	-0.00944235	0.13279	1.24368	-0.283876	0	0	0.254122	0.00693212	-0.455126	0.699632	-0.170586	0	0	-0.397844	-0.0890261	0.0537971	0.0421202	-0.367201	0.952155	0.443412	0.851228	0	0	-0.137245	-0.320991	0.440669	0.541194	1.16221	0	0
0.69	-2.62302	1.50403	-2.19566	0.694264	0.168631	1.01731	0.0770904	-0.00297646	0.133135	1.27652	-0.261469	0	0	0.232686	0.00736381	-0.451786	0.691806	-0.167708	0	0	-0.404513	-0.0827797	0.0500831	0.0410662	-0.370153	0.948271	0.449499	0.851912	0	0	-0.13666	-0.320993	0.440158	0.54354	1.16237	0	0
0.7	-2.70936	1.50038	-2.10495	0.692745	0.17933	1.01935	0.0979282	0.0029975	0.133464	1.30424	-0.242777	0	0	0.210297	0.00840004	-0.448229	0.681406	-0.165032	0	0	-0.411162	-0.0765645	0.046944	0.0407935	-0.372101	0.945268	0.453175	0.852393	0	0	-0.134674	-0.319876	0.439466	0.543628	1.16157	0	0
0.71	-2.78673	1.49605	-2.02422	0.691288	0.18984	1.02151	0.118856	0.00833066	0.133202	1.32749	-0.22778	0	0	0.186825	0.00973821	-0.446739	0.669145	-0.162854	0	0	-0.417869	-0.0708589	0.0448221	0.0413779	-0.373309	0.943422	0.455138	0.852624	0	0	-0.131891	-0.318504	0.439474	0.542684	1.16139	0	0
0.72	-2.84763	1.49208	-1.96083	0.689901	0.200182	1.02358	0.140716	0.0134443	0.133111	1.34624	-0.21704	0	0	0.164148	0.0111376	-0.448153	0.657121	-0.161144	0	0	-0.423141	-0.0658472	0.04327	0.0425118	-0.373878	0.942769	0.455737	0.852229	0	0	-0.12887	-0.31724	0.440816	0.540946	1.16316	0	0
0.73	-2.8963	1.48838	-1.91052	0.688613	0.210351	1.0256	0.162906	0.0183388	0.133192	1.36005	-0.206325	0	0	0.141847	0.01306	-0.45069	0.644538	-0.159324	0	0	-0.427602	-0.0616628	0.0424802	0.0439081	-0.374334	0.942509	0.456133	0.85124	0	0	-0.125374	-0.315942	0.442166	0.538498	1.16561	0	0
0.74	-2.93682	1.48533	-1.86886	0.687424	0.220417	1.02752	0.185829	0.0228263	0.13247	1.36906	-0.198873	0	0	0.120327	0.0152048	-0.45403	0.631857	-0.157572	0	0	-0.431159	-0.0580092	0.0420083	0.0454452	-0.374642	0.942558	0.456348	0.850017	0	0	-0.121865	-0.314742	0.442889	0.536087	1.16698	0	0
0.75	-2.97118	1.48333	-1.83401	0.686336	0.230278	1.02926	0.209398	0.0277006	0.132648	1.37287	-0.194122	0	0	0.100298	0.0173482	-0.45714	0.619103	-0.155947	0	0	-0.433681	-0.0547802	0.0418829	0.047221	-0.375184	0.942871	0.457115	0.848585	0	0	-0.118558	-0.313936	0.443532	0.534312	1.16817	0	0
0.76	-2.99797	1.48261	-1.80688	0.68523	0.240028	1.03071	0.233957	0.0321092	0.132334	1.37201	-0.191889	0	0	0.082373	0.0194992	-0.459607	0.606755	-0.154297	0	0	-0.43465	-0.0518383	0.0416115	0.0489326	-0.376241	0.943429	0.458764	0.847145	0	0	-0.115979	-0.313526	0.443695	0.53374	1.16858	0	0
0.77	-3.01944	1.48306	-1.78518	0.684062	0.249786	1.0319	0.259165	0.0358752	0.131301	1.36689	-0.19049	0	0	0.0666259	0.0217284	-0.460766	0.595512	-0.152944	0	0	-0.433962	-0.0489746	0.0409337	0.0505444	-0.377912	0.944348	0.461152	0.845884	0	0	-0.114427	-0.313363	0.443993	0.53383	1.16921	0	0
